<?xml version="1.0" encoding="UTF-8"?>
<!DOCTYPE svg PUBLIC "-//W3C//DTD SVG 1.1//EN" "http://www.w3.org/Graphics/SVG/1.1/DTD/svg11.dtd">
<!-- Creator: CorelDRAW 2020 (64 Bit) -->
<svg xmlns="http://www.w3.org/2000/svg" xml:space="preserve" width="42mm" height="33mm" version="1.1" style="shape-rendering:geometricPrecision; text-rendering:geometricPrecision; image-rendering:optimizeQuality; fill-rule:evenodd; clip-rule:evenodd"
viewBox="0 0 4200 3300"
 xmlns:xlink="http://www.w3.org/1999/xlink"
 xmlns:xodm="http://www.corel.com/coreldraw/odm/2003">
 <defs>
  <style type="text/css">
   <![CDATA[
    .fil0 {fill:#CCCCCC}
    .fil1 {fill:#CCCCCC}
   ]]>
  </style>
 </defs>
 <g id="Camada_x0020_1">
  <metadata id="CorelCorpID_0Corel-Layer"/>
  <g id="_2972777924784">
   <path class="fil0" d="M548.58 1312.44c-140.42,64 -256.05,156.62 -342.23,283.18 -58.11,85.47 -21.36,957.5 -12.4,1001.53 25.74,125.89 46.23,200.83 194.89,205.13l50.16 -1.18 0 -41.35c0,-46.9 33.17,-85.38 73.93,-85.38l519.11 0c40.61,0 73.93,38.48 73.93,85.38l0 25.85 1939.15 -25.09 77.51 0.09 0 -1.1c0,-46.99 33.24,-85.38 73.93,-85.38l519.11 0c39.88,0 72.69,36.88 73.93,82.6 192.18,-38.73 196.63,-141.63 186.64,-676.16 -4.81,-254.3 59.13,-464.05 -112.21,-582.44l-312.7 -216.07c41.78,-1.27 76.48,-29.9 118.4,-30.57 120.3,-2.27 248.77,23.07 370.16,9.68 145.53,-16.33 132.69,-320.14 -22.53,-323.93 -127.59,-3.12 -256.71,-32.08 -382.77,-9.52 -111.33,20.04 -135.39,313.24 -180.16,222.22 -101.7,-206.47 -160.83,-493.95 -265.31,-695.78 -49.07,-94.82 -141.23,-205.13 -235.79,-223.15 -144.72,-27.53 -271.88,-4.63 -463.11,-4.21 -415.15,0.85 -883.95,-21.05 -1292.6,-2.44 -185.19,8.34 -348.07,505.99 -491.26,873.79 -4.89,12.47 -25.45,20.04 -30.33,33.1 -74.01,-143.83 -115.93,-189.63 -159.09,-204.12 -126.79,-40.41 -269.03,-32.16 -382.7,32 -127.37,71.91 -119.06,251.02 0,259.69l419.96 30.56c33.61,13.48 25.81,36.97 -5.62,63.07zm599.82 753.05c74.52,0.33 35.07,-165.97 -42.79,-199.82 -157.05,-68.46 -343.55,-76.88 -494.69,-49.35 -81.37,14.82 -49.29,246.47 34.63,246.81l502.85 2.36zm1910.72 7.41c-74.51,0.25 -35.14,-166.06 42.73,-199.91 157.12,-68.45 343.62,-76.87 494.68,-49.34 81.44,14.82 49.36,246.47 -34.56,246.8l-502.85 2.45zm-1477.93 -7.92l86.61 403.51 807.18 0 128.1 -403.51 -1021.89 0zm1888.26 296.74c42.95,0 77.8,40.25 77.8,89.93 0,49.68 -34.85,89.93 -77.8,89.93 -43.01,0 -77.86,-40.25 -77.86,-89.93 0,-49.68 34.85,-89.93 77.86,-89.93zm-2695.14 -16.84c43.01,0 77.86,40.25 77.86,89.93 0,49.59 -34.85,89.84 -77.86,89.84 -42.95,0 -77.8,-40.25 -77.8,-89.84 0,-49.68 34.85,-89.93 77.8,-89.93zm52.27 -1161.61l2490.35 -4.12c-170.17,-405.45 -238.85,-791.95 -368.41,-792.7l-1660.06 -10.87c-179.43,-1.18 -319.49,471.13 -461.88,807.69z"/>
   <rect class="fil1" x="436.72" y="2628.04" width="666.94" height="457.13" rx="71" ry="85.43"/>
   <rect class="fil1" x="3120.39" y="2627.76" width="666.94" height="457.13" rx="71" ry="85.43"/>
  </g>
 </g>
</svg>
