<?xml version="1.0" encoding="UTF-8"?>
<!DOCTYPE svg PUBLIC "-//W3C//DTD SVG 1.1//EN" "http://www.w3.org/Graphics/SVG/1.1/DTD/svg11.dtd">
<!-- Creator: CorelDRAW 2020 (64 Bit) -->
<svg xmlns="http://www.w3.org/2000/svg" xml:space="preserve" width="42mm" height="33mm" version="1.1" style="shape-rendering:geometricPrecision; text-rendering:geometricPrecision; image-rendering:optimizeQuality; fill-rule:evenodd; clip-rule:evenodd"
viewBox="0 0 4200 3300"
 xmlns:xlink="http://www.w3.org/1999/xlink"
 xmlns:xodm="http://www.corel.com/coreldraw/odm/2003">
 <defs>
  <style type="text/css">
   <![CDATA[
    .str0 {stroke:#CCCCCC;stroke-width:20;stroke-miterlimit:22.9256}
    .fil0 {fill:#CCCCCC}
   ]]>
  </style>
 </defs>
 <g id="Camada_x0020_1">
  <metadata id="CorelCorpID_0Corel-Layer"/>
  <g id="_2972777931648">
   <path class="fil0 str0" d="M603.75 2709.03c0.8,5.93 1.19,11.98 1.19,18.12l0 290.73c0,71.05 -53.71,129.19 -119.35,129.19l-113.68 0c-65.64,0 -119.34,-58.14 -119.34,-129.19l0 -290.73c0,-6.14 0.39,-12.19 1.18,-18.12l-142.67 0c-38.11,0 -69.28,-33.74 -69.28,-74.99l0 -276.49 0 -90.95 0 -1007.82c0,-173.2 130.89,-314.88 290.89,-314.88l0.03 0c160,0 290.89,141.68 290.89,314.88l0 1007.82 2934.32 0 0 -1008.52c0,-173.2 130.88,-314.87 290.89,-314.87l0.02 0c160.01,0 290.9,141.67 290.9,314.87l0 1098.77c0,84.83 22.26,352.18 -79.49,352.18l-119.54 0c1.16,7.16 1.75,14.53 1.75,22.06l0 290.73c0,71.05 -53.7,129.19 -119.34,129.19l-113.68 0c-65.64,0 -119.35,-58.14 -119.35,-129.19l0 -290.73c0,-7.53 0.59,-14.9 1.76,-22.06l-1330.86 0c0.54,5.07 0.86,10.21 0.86,15.44l0 290.73c0,71.05 -53.7,129.19 -119.34,129.19l-113.68 0c-65.64,0 -119.35,-58.14 -119.35,-129.19l0 -290.73c0,-5.23 0.32,-10.37 0.87,-15.44l-1306.6 0zm149.91 -990.46l2696.31 0c19.76,0 35.9,17.48 35.9,38.87l0 336.13c0,21.39 -16.14,38.86 -35.9,38.86l-2696.31 0c-19.76,0 -35.91,-17.47 -35.91,-38.86l0 -336.13c0,-21.39 16.15,-38.87 35.91,-38.87z"/>
   <path class="fil0 str0" d="M2772.52 151.01l287.58 0c355.29,0 647.05,309.46 656.61,691.66 -152.77,8.9 -275.19,146.93 -275.19,314.42l0 416.05 -1325.88 0 0 -711.09c0,-391.08 295.59,-711.04 656.88,-711.04z"/>
   <path class="fil0 str0" d="M1392.81 155.48l-287.57 0c-355.3,0 -647.06,309.46 -656.62,691.67 152.78,8.89 275.2,146.93 275.2,314.42l0 416.05 1325.88 0 0 -711.1c0,-391.07 -295.6,-711.04 -656.89,-711.04z"/>
  </g>
 </g>
</svg>
